# xmcd
#
# Track frame offsets:
#	182
#	16172
#	41892
#	65500
#
# Disc length: 1128 seconds
#
# Revision: 1
# Processed by: cddbd v1.5.2PL0 Copyright (c) Steve Scherf et al.
# Submitted via: audiograbber 1.83.01
#
DISCID=2e046604
DTITLE=Scanners - Pure [CDs Remixes)
DYEAR=1995
DGENRE=Techno
TTITLE0=Pure (Radio Edit)
TTITLE1=Pure (Full Mix)
TTITLE2=Pure (Pure Dance Mix)
TTITLE3=Impure
EXTD=
EXTT0=
EXTT1=
EXTT2=
EXTT3=
PLAYORDER=
